<svg width="88" height="100" viewBox="0 0 88 100" fill="none" xmlns="http://www.w3.org/2000/svg">
<path fill-rule="evenodd" clip-rule="evenodd" d="M38.5073 41.238V7.8125C38.5073 4.59492 35.9115 2 32.7185 2C29.5256 2 26.9298 4.59492 26.9298 7.8125V76.8566L12.4249 57.4491C12.4247 57.449 12.425 57.4493 12.4249 57.4491C10.4948 54.8733 6.88246 54.3571 4.32506 56.2847C1.75632 58.2207 1.23717 61.8535 3.1642 64.4259L3.16528 64.4273L17.1842 83.1762C17.1843 83.1764 17.184 83.176 17.1842 83.1762C23.429 91.5153 32.8321 96.7775 43.046 97.8149L43.0898 97.8194L43.1334 97.8257C43.9565 97.9462 44.8123 98 45.7063 98H62.3158C74.9721 98 85.2398 87.7098 85.2398 75V53.125C85.2398 49.048 81.9431 45.75 77.8933 45.75C76.0058 45.75 74.2824 46.4562 72.9878 47.6326L69.9602 50.3836L69.6486 46.3047C69.3574 42.491 66.1844 39.5 62.3158 39.5C60.2156 39.5 58.3168 40.3981 56.9555 41.8412L54.7489 44.1802L53.6264 41.1669C52.5835 38.367 49.8848 36.375 46.7383 36.375C44.8542 36.375 43.1445 37.0792 41.8426 38.2467L38.5073 41.238ZM14.0255 56.25L24.9298 70.8398V7.8125C24.9298 3.49609 28.4153 0 32.7185 0C37.0218 0 40.5073 3.49609 40.5073 7.8125V36.7578C41.1094 36.2178 41.7811 35.7554 42.5073 35.3855C43.7774 34.7387 45.2145 34.375 46.7383 34.375C50.0008 34.375 52.8768 36.0547 54.5493 38.5943C54.9331 39.1771 55.2535 39.8052 55.5006 40.4688C55.9824 39.9581 56.5195 39.5 57.1025 39.1051C58.5933 38.0955 60.3841 37.5 62.3158 37.5C66.4597 37.5 69.9699 40.1949 71.2006 43.9338C71.433 44.6398 71.5841 45.383 71.6428 46.1523C72.2011 45.6451 72.8213 45.2068 73.4901 44.8485C74.8043 44.1446 76.306 43.75 77.8933 43.75C83.0534 43.75 87.2398 47.9492 87.2398 53.125V75C87.2398 88.8086 76.0824 100 62.3158 100H45.7063C44.7327 100 43.7786 99.9414 42.8439 99.8047C32.076 98.7109 22.1648 93.1641 15.5833 84.375L1.56353 65.625C-1.02623 62.168 -0.325244 57.2852 3.12128 54.6875C6.5678 52.0898 11.4358 52.793 14.0255 56.25ZM43.6228 54.25C46.4466 54.25 48.7383 56.5574 48.7383 59.375V78.125C48.7383 80.9426 46.4466 83.25 43.6228 83.25C40.799 83.25 38.5073 80.9426 38.5073 78.125V59.375C38.5073 56.5574 40.799 54.25 43.6228 54.25ZM50.9693 59.375C50.9693 56.5574 53.261 54.25 56.0848 54.25C58.9086 54.25 61.2003 56.5574 61.2003 59.375V78.125C61.2003 80.9426 58.9086 83.25 56.0848 83.25C53.261 83.25 50.9693 80.9426 50.9693 78.125V59.375ZM68.5468 54.25C71.3706 54.25 73.6623 56.5574 73.6623 59.375V78.125C73.6623 80.9426 71.3706 83.25 68.5468 83.25C65.723 83.25 63.4313 80.9426 63.4313 78.125V59.375C63.4313 56.5574 65.723 54.25 68.5468 54.25ZM43.6228 56.25C45.3363 56.25 46.7383 57.6562 46.7383 59.375V78.125C46.7383 79.8438 45.3363 81.25 43.6228 81.25C41.9093 81.25 40.5073 79.8438 40.5073 78.125V59.375C40.5073 57.6562 41.9093 56.25 43.6228 56.25ZM52.9693 59.375C52.9693 57.6562 54.3713 56.25 56.0848 56.25C57.7983 56.25 59.2003 57.6562 59.2003 59.375V78.125C59.2003 79.8438 57.7983 81.25 56.0848 81.25C54.3713 81.25 52.9693 79.8438 52.9693 78.125V59.375ZM68.5468 56.25C70.2603 56.25 71.6623 57.6562 71.6623 59.375V78.125C71.6623 79.8438 70.2603 81.25 68.5468 81.25C66.8333 81.25 65.4313 79.8438 65.4313 78.125V59.375C65.4313 57.6562 66.8333 56.25 68.5468 56.25Z" fill="#BABABA"/>
</svg>
