<svg viewBox="0 0 142 142" fill="none" xmlns="http://www.w3.org/2000/svg">
<path d="M115.079 83.4205C115.385 82.4543 115.812 81.7013 116.36 81.1615C116.908 80.6217 117.591 80.2991 118.407 80.1937C119.236 80.0923 120.229 80.2034 121.385 80.5271L120.901 83.5834C120.236 83.387 119.684 83.2754 119.245 83.2485C118.802 83.2342 118.461 83.2943 118.223 83.4288C117.981 83.5759 117.815 83.7893 117.727 84.069C117.614 84.4249 117.663 84.6919 117.872 84.87C118.078 85.0608 118.314 85.1984 118.581 85.2829C119.216 85.4839 119.799 85.5001 120.327 85.3317C120.869 85.1673 121.444 84.8948 122.054 84.5143L123.639 83.5473C124.32 83.1193 125.036 82.8004 125.788 82.5905C126.548 82.3974 127.392 82.4476 128.32 82.7411C129.63 83.1551 130.505 83.8585 130.946 84.851C131.4 85.8476 131.416 87.0133 130.994 88.3482C130.733 89.1745 130.384 89.7914 129.948 90.1987C129.507 90.6188 129.018 90.8836 128.48 90.9932C127.95 91.1194 127.417 91.1466 126.881 91.0748C126.353 91.0198 125.858 90.9262 125.396 90.7942L125.963 87.743C126.424 87.875 126.828 87.9678 127.175 88.0215C127.53 88.0919 127.819 88.0853 128.041 88.0017C128.276 87.9222 128.44 87.7362 128.532 87.4438C128.633 87.126 128.574 86.8486 128.355 86.6116C128.132 86.3874 127.887 86.233 127.62 86.1486C127.048 85.9677 126.536 85.9525 126.083 86.1028C125.638 86.27 125.149 86.5137 124.614 86.834L123.085 87.7559C122.3 88.2488 121.472 88.6095 120.603 88.838C119.73 89.0792 118.759 89.031 117.691 88.6933C116.966 88.4642 116.358 88.0899 115.865 87.5704C115.384 87.0549 115.069 86.4378 114.919 85.7191C114.765 85.013 114.818 84.2468 115.079 83.4205Z"/>
<path d="M110.395 94.3453C111.057 93.3128 111.768 92.6123 112.527 92.2438C113.29 91.8938 114.087 91.8113 114.919 91.9963C115.762 92.1885 116.644 92.5798 117.564 93.1701L122.48 96.3231C123.422 96.9278 124.151 97.5696 124.666 98.2484C125.192 98.9345 125.45 99.6937 125.439 100.526C125.42 101.37 125.08 102.308 124.418 103.34C123.77 104.35 123.098 105.028 122.401 105.373C121.708 105.737 120.989 105.846 120.243 105.7C119.497 105.554 118.737 105.233 117.963 104.736L116.784 103.98L118.674 101.034L120.037 101.909C120.307 102.081 120.576 102.23 120.844 102.355C121.106 102.491 121.358 102.542 121.601 102.508C121.856 102.481 122.088 102.305 122.297 101.98C122.498 101.665 122.565 101.376 122.498 101.111C122.423 100.857 122.271 100.625 122.042 100.414C121.816 100.222 121.563 100.036 121.283 99.8561L114.869 95.742C114.566 95.5476 114.271 95.3901 113.984 95.2694C113.701 95.1672 113.434 95.1386 113.183 95.1837C112.937 95.2472 112.72 95.4249 112.533 95.7167C112.331 96.0309 112.266 96.3058 112.336 96.5413C112.418 96.7839 112.578 97.0049 112.814 97.2041C113.051 97.4033 113.304 97.5894 113.573 97.7621L115.004 98.68L113.114 101.626L111.936 100.87C111.161 100.373 110.541 99.8092 110.075 99.1776C109.613 98.5644 109.386 97.8565 109.394 97.0537C109.406 96.2694 109.74 95.3666 110.395 94.3453Z"/>
<path d="M106.228 101.222L116.999 113.324L113.667 116.289C112.85 117.016 112.063 117.555 111.306 117.908C110.549 118.261 109.798 118.349 109.052 118.173C108.306 118.017 107.556 117.515 106.803 116.668C106.359 116.17 106.005 115.692 105.739 115.232C105.473 114.773 105.321 114.301 105.283 113.817C105.244 113.352 105.339 112.848 105.569 112.304L98.6987 107.924L101.463 105.464L107.619 109.704L108.381 109.026L103.554 103.602L106.228 101.222ZM109.75 110.564L109.003 111.229C108.625 111.566 108.389 111.892 108.295 112.208C108.21 112.533 108.238 112.856 108.38 113.176C108.521 113.515 108.751 113.864 109.07 114.222C109.531 114.74 109.984 115.059 110.431 115.18C110.877 115.3 111.354 115.134 111.862 114.682L112.729 113.911L109.75 110.564Z"/>
<path d="M92.4983 111.432C93.5876 110.898 94.5435 110.667 95.3658 110.739C96.1882 110.811 96.9132 111.138 97.5408 111.721C98.1684 112.305 98.7258 113.093 99.2131 114.087L101.864 119.492C102.357 120.497 102.639 121.421 102.71 122.262C102.781 123.103 102.591 123.865 102.138 124.547C101.692 125.242 100.924 125.856 99.8344 126.39C98.7331 126.93 97.7712 127.164 96.9489 127.092C96.1204 127.038 95.3953 126.726 94.7736 126.155C94.1519 125.583 93.5944 124.795 93.1012 123.789L90.4503 118.384C89.963 117.391 89.6809 116.467 89.604 115.614C89.527 114.761 89.7178 113.984 90.1764 113.284C90.623 112.59 91.3969 111.972 92.4983 111.432ZM93.6167 113.713C93.2815 113.877 93.0772 114.081 93.0038 114.325C92.9304 114.569 92.9343 114.835 93.0156 115.121C93.0969 115.408 93.205 115.689 93.3401 115.965L96.7748 122.968C96.9157 123.255 97.0717 123.513 97.2429 123.741C97.42 123.98 97.6274 124.146 97.8652 124.237C98.103 124.329 98.3895 124.292 98.7247 124.128C99.036 123.975 99.2283 123.777 99.3017 123.533C99.3752 123.289 99.3712 123.023 99.29 122.737C99.2145 122.462 99.1064 122.181 98.9655 121.893L95.5308 114.89C95.3957 114.615 95.2457 114.354 95.0806 114.109C94.9036 113.869 94.7021 113.7 94.4763 113.603C94.2384 113.512 93.9519 113.548 93.6167 113.713Z"/>
<path d="M85.1689 115.032L88.5074 130.884L85.0042 131.622L82.1644 118.138L78.5243 118.904L78.0256 116.536L85.1689 115.032Z"/>
<path d="M75.0927 117.046L74.9051 133.245L71.3253 133.203L71.4849 119.424L67.7651 119.381L67.7931 116.961L75.0927 117.046Z"/>
<path d="M58.632 115.75L52.2656 130.647L48.4954 129.035C47.1958 128.48 46.2551 127.882 45.6732 127.242C45.086 126.614 44.7947 125.888 44.7991 125.063C44.7983 124.251 45.0336 123.293 45.5052 122.189L47.816 116.782C48.2928 115.667 48.8303 114.816 49.4285 114.231C50.0214 113.658 50.7503 113.36 51.6151 113.338C52.4677 113.311 53.5377 113.573 54.8251 114.123L58.632 115.75ZM54.3654 116.623L53.8505 116.403C53.3478 116.189 52.9546 116.108 52.6711 116.16C52.3875 116.213 52.1583 116.376 51.9835 116.65C51.7965 116.918 51.6086 117.272 51.42 117.714L48.6455 124.206C48.4569 124.647 48.3417 125.018 48.3 125.319C48.246 125.615 48.3032 125.872 48.4714 126.089C48.6397 126.306 48.9691 126.519 49.4595 126.729L49.9561 126.941L54.3654 116.623Z"/>
<path d="M43.5913 107.676C44.5376 108.435 45.1527 109.203 45.4368 109.978C45.7209 110.753 45.7321 111.548 45.4705 112.364C45.209 113.18 44.7319 114.019 44.0392 114.883L40.2712 119.577C39.5701 120.451 38.8538 121.098 38.1223 121.52C37.3907 121.942 36.62 122.092 35.8102 121.972C34.992 121.863 34.1098 121.428 33.1635 120.669C32.2069 119.901 31.5865 119.13 31.3024 118.355C30.9996 117.582 30.9748 116.792 31.2281 115.987C31.4813 115.181 31.9584 114.342 32.6594 113.469L36.4275 108.774C37.1201 107.91 37.8364 107.263 38.5763 106.831C39.3162 106.399 40.1005 106.242 40.929 106.36C41.7472 106.469 42.6346 106.908 43.5913 107.676ZM42.0015 109.657C41.7103 109.423 41.4387 109.325 41.1867 109.362C40.9347 109.399 40.6961 109.515 40.4709 109.711C40.2457 109.906 40.0371 110.123 39.8452 110.363L34.963 116.446C34.7627 116.695 34.5957 116.946 34.4621 117.198C34.3201 117.46 34.2582 117.718 34.2766 117.972C34.2949 118.226 34.4497 118.47 34.7408 118.704C35.0112 118.921 35.2724 119.011 35.5244 118.973C35.7764 118.936 36.015 118.82 36.2402 118.625C36.4571 118.44 36.6657 118.222 36.8659 117.973L41.7481 111.89C41.9401 111.651 42.1122 111.404 42.2646 111.15C42.4066 110.888 42.4737 110.634 42.4657 110.388C42.4474 110.134 42.2926 109.891 42.0015 109.657Z"/>
<path d="M36.4781 101.977L24.25 112.783L22.5252 110.279L29.754 104.133L21.3048 108.473L19.9544 106.513L26.9359 100.148L18.6557 104.663L16.9536 102.193L31.3945 94.5991L33.1647 97.1683L25.8941 103.854L34.6852 99.3752L36.4781 101.977Z"/>
<path d="M29.163 91.1507L13.7542 96.1515L12.9763 93.7546L19.3705 88.1889L11.9514 90.5967L11.0377 87.7813L26.4466 82.7805L27.1936 85.0823L20.2287 90.8332L28.2184 88.2402L29.163 91.1507Z"/>
<path d="M25.5689 78.8852L22.5056 79.2052L22.1856 76.1419L25.2489 75.8219L25.5689 78.8852Z"/>
<path d="M26.2419 61.2954C25.9955 62.2783 25.615 63.0558 25.1004 63.6278C24.5859 64.1998 23.9243 64.5632 23.1158 64.7179C22.2943 64.8693 21.2967 64.8185 20.123 64.5655L20.4209 61.4855C21.0967 61.6412 21.6545 61.7191 22.0943 61.7194C22.5373 61.7068 22.8737 61.6262 23.1034 61.4776C23.3363 61.316 23.4885 61.093 23.5598 60.8085C23.6506 60.4464 23.5861 60.1828 23.3663 60.0177C23.1498 59.8397 22.9057 59.7166 22.6341 59.6485C21.9874 59.4864 21.4053 59.5054 20.8878 59.7056C20.3573 59.9025 19.7993 60.2093 19.2137 60.6261L17.6898 61.6874C17.0363 62.1558 16.3408 62.5175 15.6033 62.7725C14.8561 63.0113 14.0105 63.0124 13.0664 62.7757C11.7343 62.4417 10.8179 61.7927 10.3173 60.8287C9.80382 59.8614 9.71729 58.6988 10.0577 57.3408C10.2685 56.5002 10.5794 55.8633 10.9904 55.4303C11.4046 54.9843 11.8769 54.6903 12.4074 54.5484C12.9281 54.3903 13.4585 54.3308 13.9985 54.37C14.5289 54.393 15.0284 54.4564 15.4973 54.5602L15.1168 57.6401C14.648 57.5363 14.239 57.4682 13.8898 57.4356C13.5308 57.3868 13.243 57.4109 13.0263 57.5078C12.7966 57.6014 12.6445 57.7969 12.5699 58.0944C12.4888 58.4177 12.5647 58.691 12.7973 58.9143C13.0333 59.1247 13.287 59.2639 13.5586 59.332C14.1406 59.4779 14.6532 59.4621 15.0963 59.2845C15.5298 59.0908 16.0037 58.8178 16.5181 58.4657L17.9886 57.4529C18.7424 56.9134 19.5463 56.5032 20.4002 56.2224C21.2574 55.9287 22.2291 55.9181 23.3155 56.1904C24.0527 56.3753 24.6831 56.712 25.2066 57.2007C25.7172 57.6861 26.0693 58.283 26.2629 58.9913C26.4597 59.6867 26.4527 60.4547 26.2419 61.2954Z"/>
<path d="M30.2414 50.0996C29.641 51.1693 28.9728 51.9104 28.2367 52.3229C27.4955 52.7172 26.7043 52.8465 25.8631 52.7107C25.0102 52.5684 24.1071 52.2297 23.1537 51.6946L18.0611 48.8361C17.0844 48.2879 16.3191 47.6901 15.765 47.0427C15.1994 46.3889 14.8976 45.6461 14.8598 44.8145C14.8285 43.9713 15.1131 43.0148 15.7135 41.9452C16.3009 40.8987 16.9321 40.1827 17.6072 39.7972C18.2773 39.3935 18.9889 39.2425 19.7422 39.3442C20.4955 39.4459 21.2732 39.7219 22.0755 40.1722L23.2963 40.8575L21.5832 43.9096L20.1705 43.1166C19.8915 42.96 19.6143 42.8273 19.3389 42.7186C19.0701 42.5983 18.8151 42.5622 18.574 42.6104C18.3213 42.652 18.1003 42.8414 17.911 43.1786C17.7283 43.5042 17.6784 43.7973 17.7615 44.058C17.851 44.307 18.0165 44.5298 18.2578 44.7264C18.494 44.9049 18.7575 45.0757 19.0481 45.2388L25.693 48.9686C26.0069 49.1448 26.3106 49.2847 26.6041 49.3883C26.8926 49.4737 27.1606 49.4865 27.4082 49.4268C27.6507 49.3488 27.8568 49.1587 28.0265 48.8564C28.2092 48.5308 28.2584 48.2526 28.1739 48.0217C28.0778 47.7843 27.9058 47.5731 27.658 47.3881C27.4102 47.2031 27.1467 47.0323 26.8677 46.8757L25.3852 46.0436L27.0984 42.9915L28.3192 43.6768C29.1214 44.1271 29.7738 44.6538 30.2762 45.2569C30.7736 45.8419 31.0418 46.5353 31.0811 47.3371C31.1152 48.1207 30.8353 49.0416 30.2414 50.0996Z"/>
<path d="M33.8556 43.1187L22.3589 31.7053L25.5011 28.5401C26.2714 27.7642 27.0235 27.177 27.7575 26.7783C28.4914 26.3797 29.2358 26.245 29.9905 26.3742C30.7451 26.4846 31.5246 26.939 32.3289 27.7375C32.802 28.2072 33.1855 28.6631 33.4794 29.1051C33.7733 29.5472 33.9541 30.0085 34.0218 30.4891C34.0895 30.9508 34.0254 31.4602 33.8294 32.0172L40.9573 35.9652L38.3505 38.591L31.9442 34.7393L31.2256 35.4632L36.3778 40.5781L33.8556 43.1187ZM29.7637 34.0118L30.4682 33.3022C30.8252 32.9426 31.0408 32.6024 31.115 32.2816C31.1798 31.9514 31.1315 31.631 30.9701 31.3204C30.8086 30.991 30.5576 30.6572 30.2169 30.3191C29.7249 29.8306 29.2524 29.54 28.7996 29.4474C28.3467 29.3548 27.8807 29.5497 27.4016 30.0323L26.5843 30.8555L29.7637 34.0118Z"/>
<path d="M47.046 31.9613C45.9902 32.5591 45.0497 32.8464 44.2245 32.8233C43.3993 32.8002 42.6563 32.5161 41.9952 31.971C41.3342 31.4259 40.7311 30.6718 40.1859 29.7088L37.22 24.4701C36.6682 23.4955 36.3319 22.5904 36.2112 21.7547C36.0905 20.919 36.2358 20.1473 36.6471 19.4394C37.0519 18.72 37.7822 18.0614 38.838 17.4636C39.9055 16.8592 40.8518 16.5686 41.6769 16.5918C42.5071 16.5967 43.2495 16.866 43.9039 17.3994C44.5583 17.9329 45.1614 18.687 45.7132 19.6616L48.6792 24.9003C49.2244 25.8633 49.5606 26.7685 49.6879 27.6157C49.8152 28.463 49.6707 29.2496 49.2543 29.9756C48.8496 30.6951 48.1135 31.357 47.046 31.9613ZM45.7946 29.751C46.1195 29.5671 46.3114 29.3512 46.3702 29.1033C46.4291 28.8555 46.4095 28.5908 46.3114 28.3093C46.2133 28.0277 46.0887 27.7535 45.9376 27.4867L42.0947 20.699C41.9371 20.4206 41.766 20.1726 41.5817 19.9552C41.3908 19.7263 41.1739 19.5732 40.9311 19.4962C40.6883 19.4192 40.4044 19.4726 40.0796 19.6565C39.7779 19.8273 39.5976 20.0366 39.5387 20.2845C39.4799 20.5323 39.4995 20.797 39.5976 21.0785C39.6891 21.3485 39.8137 21.6227 39.9714 21.9012L43.8143 28.6888C43.9654 28.9557 44.1306 29.2069 44.3099 29.4424C44.5008 29.6714 44.7119 29.8277 44.9431 29.9113C45.1859 29.9884 45.4697 29.9349 45.7946 29.751Z"/>
<path d="M54.1248 27.9145L49.8283 12.2947L53.2801 11.3452L56.9348 24.6317L60.5216 23.6451L61.1634 25.9785L54.1248 27.9145Z"/>
<path d="M63.8326 25.2959L63.0203 9.11624L66.5958 8.93673L67.2868 22.6994L71.0021 22.5129L71.1234 24.9298L63.8326 25.2959Z"/>
<path d="M80.5691 25.5454L86.0318 10.2942L89.8916 11.6767C91.2222 12.1533 92.1971 12.6937 92.8163 13.2979C93.44 13.8895 93.7743 14.597 93.8193 15.4204C93.8688 16.2312 93.6912 17.2015 93.2866 18.3312L91.3038 23.8669C90.8947 25.0091 90.4091 25.8903 89.8471 26.5105C89.2895 27.1181 88.5798 27.4587 87.7178 27.5323C86.8684 27.6105 85.7846 27.4135 84.4666 26.9414L80.5691 25.5454ZM84.7757 24.4178L85.3029 24.6067C85.8175 24.791 86.2148 24.8483 86.4947 24.7786C86.7746 24.7089 86.9936 24.5324 87.1517 24.2492C87.3224 23.9704 87.4887 23.6051 87.6505 23.1532L90.0312 16.5066C90.193 16.0548 90.2857 15.6773 90.3093 15.3741C90.3455 15.0755 90.2731 14.8229 90.0921 14.6165C89.9111 14.41 89.5696 14.2169 89.0675 14.0371L88.5591 13.855L84.7757 24.4178Z"/>
<path d="M95.855 32.5233C94.8635 31.824 94.2019 31.0964 93.8703 30.3404C93.5388 29.5844 93.4782 28.7912 93.6887 27.9607C93.8992 27.1302 94.3234 26.2627 94.9612 25.3584L98.431 20.4389C99.0765 19.5236 99.7513 18.833 100.455 18.3669C101.159 17.9008 101.919 17.7025 102.735 17.772C103.558 17.8306 104.466 18.2096 105.457 18.9089C106.46 19.6159 107.127 20.3474 107.458 21.1034C107.808 21.8561 107.882 22.6423 107.679 23.4619C107.476 24.2815 107.052 25.149 106.407 26.0642L102.937 30.9837C102.299 31.8881 101.624 32.5788 100.913 33.0558C100.201 33.5328 99.428 33.7381 98.5937 33.6718C97.7703 33.6132 96.8574 33.2303 95.855 32.5233ZM97.319 30.4477C97.624 30.6628 97.9012 30.7441 98.1504 30.6915C98.3997 30.6388 98.6306 30.508 98.8433 30.2991C99.0559 30.0901 99.2506 29.8603 99.4274 29.6097L103.923 23.2356C104.107 22.9741 104.259 22.7136 104.376 22.454C104.502 22.1836 104.548 21.9221 104.514 21.6697C104.479 21.4172 104.31 21.1834 104.005 20.9682C103.722 20.7684 103.455 20.6949 103.206 20.7475C102.957 20.8001 102.726 20.9309 102.513 21.1399C102.308 21.338 102.114 21.5678 101.929 21.8293L97.4334 28.2034C97.2567 28.454 97.1001 28.7106 96.9637 28.9734C96.8382 29.2439 96.7871 29.5015 96.8102 29.7462C96.8443 29.9987 97.0139 30.2325 97.319 30.4477Z"/>
<path d="M103.473 37.8604L115.007 26.3173L116.884 28.7088L110.05 35.2919L118.214 30.4362L119.683 32.3085L113.11 39.0939L121.094 34.074L122.946 36.4341L109.005 44.9091L107.078 42.4546L113.92 35.3313L105.424 40.3463L103.473 37.8604Z"/>
<path d="M111.527 48.3063L126.607 42.3883L127.528 44.7342L121.48 50.6741L128.741 47.8247L129.822 50.5801L114.741 56.4981L113.857 54.2454L120.464 48.0863L112.645 51.1548L111.527 48.3063Z"/>
<path d="M115.856 60.2797L118.893 59.7722L119.401 62.8101L116.363 63.3176L115.856 60.2797Z"/>
</svg>
